<svg height="106" viewBox="0 0 107 106" width="107" xmlns="http://www.w3.org/2000/svg" xmlns:xlink="http://www.w3.org/1999/xlink"><linearGradient id="a" gradientUnits="userSpaceOnUse" x1="53.537555" x2="53.509503" y1="105.956414" y2="-.058682"><stop offset="0" stop-color="#007c77"/><stop offset="1" stop-color="#1ee5ce"/></linearGradient><g fill-rule="evenodd"><path d="m53 106c-29.271063 0-53-23.728935-53-53s23.728937-53 53-53c29.271065 0 53 23.728935 53 53s-23.728935 53-53 53zm-.636719-18.888672c10.927735 0 20.636513-5.215118 26.773438-13.292969l-12.341797-12.472656c-1.209519 2.2369-2.928238 4.15828-5 5.609375-2.154694 1.681473-5.208382 3.056641-9.431641 3.056641-.510204 0-.904018-.059555-1.193359-.171875-5.23262-.413002-9.768818-3.30082-12.439453-7.492188l8.736328-8.736328c-3.845745.015091-7.78426.02589-11.607422.033203-.000027-.013107 0-.025932 0-.039062 0-.510205.059551-.904019.171875-1.19336.412998-5.232616 3.300823-9.768821 7.492188-12.439453l8.736328 8.736328c-.015088-3.844413-.025879-7.7835-.033203-11.605468.07862-.000969.156879-.001953.236328-.001953.5102 0 .904018.059555 1.193359.171875 5.232616.413002 9.768822 3.300827 12.439453 7.492187l-8.736328 8.736328c11.065544-.043426 23.565735-.07061 28.705078.003906l.001953.001954c-.001602-.482621-.013527-.961735-.035156-1.439454v-27.236328l-7.529297 7.529297c-6.162575-7.543236-15.536465-12.361328-26.037109-12.361328-.066605 0-.132706.003517-.199219.003906v-.001953c-.274849.000931-.549046.006378-.822266.013672-.205883.005493-.410225.012199-.615234.021484h-27.236328l7.529297 7.529297c-7.543238 6.162567-12.361328 15.536469-12.361328 26.03711 0 .241592.006645.48228.011718.722656.005061.239776.01338.478279.023438.716797v.021484 27.214844l7.488281-7.488281c1.69408 2.082718 3.630158 3.960586 5.769531 5.585937l.056641-.05664c5.632069 4.261192 12.647049 6.791015 20.253906 6.791015z" fill="url(#a)"/><path d="m53 106c-29.271063 0-53-23.728935-53-53s23.728937-53 53-53c29.271065 0 53 23.728935 53 53s-23.728935 53-53 53zm-.636719-18.888672c10.927735 0 20.636513-5.215118 26.773438-13.292969l-12.341797-12.472656c-1.209519 2.2369-2.928238 4.15828-5 5.609375-2.154694 1.681473-5.208382 3.056641-9.431641 3.056641-.510204 0-.904018-.059555-1.193359-.171875-5.23262-.413002-9.768818-3.30082-12.439453-7.492188l8.736328-8.736328c-3.845745.015091-7.78426.02589-11.607422.033203-.000027-.013107 0-.025932 0-.039062 0-.510205.059551-.904019.171875-1.19336.412998-5.232616 3.300823-9.768821 7.492188-12.439453l8.736328 8.736328c-.015088-3.844413-.025879-7.7835-.033203-11.605468.07862-.000969.156879-.001953.236328-.001953.5102 0 .904018.059555 1.193359.171875 5.232616.413002 9.768822 3.300827 12.439453 7.492187l-8.736328 8.736328c11.065544-.043426 23.565735-.07061 28.705078.003906l.001953.001954c-.001602-.482621-.013527-.961735-.035156-1.439454v-27.236328l-7.529297 7.529297c-6.162575-7.543236-15.536465-12.361328-26.037109-12.361328-.066605 0-.132706.003517-.199219.003906v-.001953c-.274849.000931-.549046.006378-.822266.013672-.205883.005493-.410225.012199-.615234.021484h-27.236328l7.529297 7.529297c-7.543238 6.162567-12.361328 15.536469-12.361328 26.03711 0 .241592.006645.48228.011718.722656.005061.239776.01338.478279.023438.716797v.021484 27.214844l7.488281-7.488281c1.69408 2.082718 3.630158 3.960586 5.769531 5.585937l.056641-.05664c5.632069 4.261192 12.647049 6.791015 20.253906 6.791015z" visibility="hidden"/></g></svg>