<svg height="106" viewBox="0 0 107 106" width="107" xmlns="http://www.w3.org/2000/svg"><path d="m97.534 106c-4.694 0-8.5-3.806-8.5-8.5s3.806-8.5 8.5-8.5c4.695 0 8.5 3.806 8.5 8.5s-3.805 8.5-8.5 8.5zm0-2.334c3.406 0 6.166-2.761 6.166-6.166s-2.76-6.166-6.166-6.166c-3.405 0-6.166 2.761-6.166 6.166s2.761 6.166 6.166 6.166zm-1.332-2.346v-2.65h2.497v2.65zm0-4.211v-2.65h2.497v2.65z" fill="#ed230d"/><path d="m53 106c-29.271 0-53-23.729-53-53s23.729-53 53-53 53 23.729 53 53-23.729 53-53 53zm-.637-18.889c10.928 0 20.637-5.215 26.774-13.293l-12.342-12.472c-1.21 2.237-2.928 4.158-5 5.609-2.155 1.682-5.208 3.057-9.432 3.057-.51 0-.904-.06-1.193-.172-5.233-.413-9.769-3.301-12.44-7.492l8.737-8.737c-3.846.015-7.784.026-11.608.034 0-.014 0-.026 0-.04 0-.51.06-.904.172-1.193.413-5.233 3.301-9.769 7.492-12.439l8.737 8.736c-.015-3.844-.026-7.784-.033-11.605.078-.001.156-.002.236-.002.51 0 .904.059 1.193.171 5.233.413 9.769 3.301 12.44 7.493l-8.737 8.736c11.066-.043 23.566-.071 28.705.004l.002.002c-.001-.483-.013-.962-.035-1.44v-27.236l-7.529 7.529c-6.163-7.543-15.537-12.361-26.037-12.361-.067 0-.133.004-.199.004v-.002c-.275.001-.549.006-.823.014-.206.005-.41.012-.615.021h-27.236l7.529 7.529c-7.543 6.163-12.361 15.537-12.361 26.038 0 .241.006.482.011.722.006.24.014.478.024.717v.021 27.215l7.488-7.488c1.694 2.083 3.63 3.961 5.77 5.586l.056-.057c5.632 4.262 12.647 6.791 20.254 6.791z" fill="#fe0000"/></svg>