<?xml version="1.0" encoding="UTF-8"?>
<!-- Generated by Pixelmator Pro 2.4.5 -->
<svg width="107" height="106" viewBox="0 0 107 106" xmlns="http://www.w3.org/2000/svg" xmlns:xlink="http://www.w3.org/1999/xlink">
    <linearGradient id="linearGradient1" x1="53.537555" y1="105.956414" x2="53.509503" y2="-0.058682" gradientUnits="userSpaceOnUse">
        <stop offset="0" stop-color="#007c77" stop-opacity="1"/>
        <stop offset="1" stop-color="#1ee5ce" stop-opacity="1"/>
    </linearGradient>
    <path id="Icon" fill="url(#linearGradient1)" fill-rule="evenodd" stroke="none" d="M 53 106 C 23.728937 106 0 82.271065 0 53 C 0 23.728935 23.728937 0 53 0 C 82.271065 0 106 23.728935 106 53 C 106 82.271065 82.271065 106 53 106 Z M 52.363281 87.111328 C 63.291016 87.111328 72.999794 81.89621 79.136719 73.818359 L 66.794922 61.345703 C 65.585403 63.582603 63.866684 65.503983 61.794922 66.955078 C 59.640228 68.636551 56.58654 70.011719 52.363281 70.011719 C 51.853077 70.011719 51.459263 69.952164 51.169922 69.839844 C 45.937302 69.426842 41.401104 66.539024 38.730469 62.347656 L 47.466797 53.611328 C 43.621052 53.626419 39.682537 53.637218 35.859375 53.644531 C 35.859348 53.631424 35.859375 53.618599 35.859375 53.605469 C 35.859375 53.095264 35.918926 52.70145 36.03125 52.412109 C 36.444248 47.179493 39.332073 42.643288 43.523438 39.972656 L 52.259766 48.708984 C 52.244678 44.864571 52.233887 40.925484 52.226563 37.103516 C 52.305183 37.102547 52.383442 37.101563 52.462891 37.101563 C 52.973091 37.101563 53.366909 37.161118 53.65625 37.273438 C 58.888866 37.68644 63.425072 40.574265 66.095703 44.765625 L 57.359375 53.501953 C 68.424919 53.458527 80.92511 53.431343 86.064453 53.505859 L 86.066406 53.507813 C 86.064804 53.025192 86.052879 52.546078 86.03125 52.068359 L 86.03125 24.832031 L 78.501953 32.361328 C 72.339378 24.818092 62.965488 20 52.464844 20 C 52.398239 20 52.332138 20.003517 52.265625 20.003906 C 52.265625 20.003906 52.265625 20.001953 52.265625 20.001953 C 51.990776 20.002884 51.716579 20.008331 51.443359 20.015625 C 51.237476 20.021118 51.033134 20.027824 50.828125 20.037109 L 23.591797 20.037109 L 31.121094 27.566406 C 23.577856 33.728973 18.759766 43.102875 18.759766 53.603516 C 18.759766 53.845108 18.766411 54.085796 18.771484 54.326172 C 18.776545 54.565948 18.784864 54.804451 18.794922 55.042969 L 18.794922 55.064453 L 18.794922 82.279297 L 26.283203 74.791016 C 27.977283 76.873734 29.913361 78.751602 32.052734 80.376953 L 32.109375 80.320313 C 37.741444 84.581505 44.756424 87.111328 52.363281 87.111328 Z"/>
    <path id="Icon-mask" fill="#000000" fill-rule="evenodd" stroke="none" visibility="hidden" d="M 53 106 C 23.728937 106 0 82.271065 0 53 C 0 23.728935 23.728937 0 53 0 C 82.271065 0 106 23.728935 106 53 C 106 82.271065 82.271065 106 53 106 Z M 52.363281 87.111328 C 63.291016 87.111328 72.999794 81.89621 79.136719 73.818359 L 66.794922 61.345703 C 65.585403 63.582603 63.866684 65.503983 61.794922 66.955078 C 59.640228 68.636551 56.58654 70.011719 52.363281 70.011719 C 51.853077 70.011719 51.459263 69.952164 51.169922 69.839844 C 45.937302 69.426842 41.401104 66.539024 38.730469 62.347656 L 47.466797 53.611328 C 43.621052 53.626419 39.682537 53.637218 35.859375 53.644531 C 35.859348 53.631424 35.859375 53.618599 35.859375 53.605469 C 35.859375 53.095264 35.918926 52.70145 36.03125 52.412109 C 36.444248 47.179493 39.332073 42.643288 43.523438 39.972656 L 52.259766 48.708984 C 52.244678 44.864571 52.233887 40.925484 52.226563 37.103516 C 52.305183 37.102547 52.383442 37.101563 52.462891 37.101563 C 52.973091 37.101563 53.366909 37.161118 53.65625 37.273438 C 58.888866 37.68644 63.425072 40.574265 66.095703 44.765625 L 57.359375 53.501953 C 68.424919 53.458527 80.92511 53.431343 86.064453 53.505859 L 86.066406 53.507813 C 86.064804 53.025192 86.052879 52.546078 86.03125 52.068359 L 86.03125 24.832031 L 78.501953 32.361328 C 72.339378 24.818092 62.965488 20 52.464844 20 C 52.398239 20 52.332138 20.003517 52.265625 20.003906 C 52.265625 20.003906 52.265625 20.001953 52.265625 20.001953 C 51.990776 20.002884 51.716579 20.008331 51.443359 20.015625 C 51.237476 20.021118 51.033134 20.027824 50.828125 20.037109 L 23.591797 20.037109 L 31.121094 27.566406 C 23.577856 33.728973 18.759766 43.102875 18.759766 53.603516 C 18.759766 53.845108 18.766411 54.085796 18.771484 54.326172 C 18.776545 54.565948 18.784864 54.804451 18.794922 55.042969 L 18.794922 55.064453 L 18.794922 82.279297 L 26.283203 74.791016 C 27.977283 76.873734 29.913361 78.751602 32.052734 80.376953 L 32.109375 80.320313 C 37.741444 84.581505 44.756424 87.111328 52.363281 87.111328 Z"/>
</svg>
